G04*
G04 #@! TF.GenerationSoftware,Altium Limited,Altium Designer,23.10.1 (27)*
G04*
G04 Layer_Physical_Order=1*
G04 Layer_Color=255*
%FSLAX24Y24*%
%MOIN*%
G70*
G04*
G04 #@! TF.SameCoordinates,5D8C2957-00C5-4E15-9E5F-65C5349A431B*
G04*
G04*
G04 #@! TF.FilePolarity,Positive*
G04*
G01*
G75*
%ADD10C,0.0300*%
%ADD11C,0.0200*%
%ADD12C,0.0984*%
%ADD13C,0.0787*%
%ADD14R,0.0787X0.0787*%
%ADD15P,0.1114X4X285.0*%
%ADD16O,0.0984X0.0787*%
%ADD17C,0.1260*%
%ADD18R,0.0984X0.0787*%
%ADD19O,0.0787X0.0984*%
%ADD20R,0.0787X0.0984*%
G04:AMPARAMS|DCode=21|XSize=78.7mil|YSize=98.4mil|CornerRadius=0mil|HoleSize=0mil|Usage=FLASHONLY|Rotation=330.000|XOffset=0mil|YOffset=0mil|HoleType=Round|Shape=Round|*
%AMOVALD21*
21,1,0.0197,0.0787,0.0000,0.0000,60.0*
1,1,0.0787,-0.0049,-0.0085*
1,1,0.0787,0.0049,0.0085*
%
%ADD21OVALD21*%

G04:AMPARAMS|DCode=22|XSize=78.7mil|YSize=98.4mil|CornerRadius=0mil|HoleSize=0mil|Usage=FLASHONLY|Rotation=330.000|XOffset=0mil|YOffset=0mil|HoleType=Round|Shape=Rectangle|*
%AMROTATEDRECTD22*
4,1,4,-0.0587,-0.0229,-0.0095,0.0623,0.0587,0.0229,0.0095,-0.0623,-0.0587,-0.0229,0.0*
%
%ADD22ROTATEDRECTD22*%

%ADD23P,0.1114X4X165.0*%
G04:AMPARAMS|DCode=24|XSize=78.7mil|YSize=98.4mil|CornerRadius=0mil|HoleSize=0mil|Usage=FLASHONLY|Rotation=210.000|XOffset=0mil|YOffset=0mil|HoleType=Round|Shape=Round|*
%AMOVALD24*
21,1,0.0197,0.0787,0.0000,0.0000,300.0*
1,1,0.0787,-0.0049,0.0085*
1,1,0.0787,0.0049,-0.0085*
%
%ADD24OVALD24*%

G04:AMPARAMS|DCode=25|XSize=78.7mil|YSize=98.4mil|CornerRadius=0mil|HoleSize=0mil|Usage=FLASHONLY|Rotation=210.000|XOffset=0mil|YOffset=0mil|HoleType=Round|Shape=Rectangle|*
%AMROTATEDRECTD25*
4,1,4,0.0095,0.0623,0.0587,-0.0229,-0.0095,-0.0623,-0.0587,0.0229,0.0095,0.0623,0.0*
%
%ADD25ROTATEDRECTD25*%

G36*
X45700Y33007D02*
Y31057D01*
X35600D01*
Y25857D01*
X45700D01*
Y24007D01*
X10200Y3507D01*
X8702Y4362D01*
X13572Y13019D01*
X8700Y15607D01*
X4019Y7091D01*
X3955Y7070D01*
X2400Y7957D01*
Y49010D01*
X3968Y49914D01*
X9306Y40975D01*
X13695Y43657D01*
X8562Y52563D01*
X10200Y53507D01*
X45700Y33007D01*
D02*
G37*
%LPC*%
G36*
X10253Y52259D02*
X10125D01*
X9999Y52234D01*
X9881Y52185D01*
X9774Y52114D01*
X9684Y52023D01*
X9613Y51917D01*
X9564Y51799D01*
X9539Y51673D01*
Y51545D01*
X9564Y51420D01*
X9613Y51302D01*
X9684Y51195D01*
X9774Y51105D01*
X9881Y51034D01*
X9999Y50985D01*
X10125Y50960D01*
X10253D01*
X10378Y50985D01*
X10496Y51034D01*
X10603Y51105D01*
X10693Y51195D01*
X10764Y51302D01*
X10813Y51420D01*
X10838Y51545D01*
Y51673D01*
X10813Y51799D01*
X10764Y51917D01*
X10693Y52023D01*
X10603Y52114D01*
X10496Y52185D01*
X10378Y52234D01*
X10253Y52259D01*
D02*
G37*
G36*
X4116Y48716D02*
X3988D01*
X3862Y48691D01*
X3744Y48642D01*
X3637Y48571D01*
X3547Y48480D01*
X3476Y48374D01*
X3427Y48255D01*
X3402Y48130D01*
Y48002D01*
X3427Y47876D01*
X3476Y47758D01*
X3547Y47652D01*
X3637Y47561D01*
X3744Y47490D01*
X3862Y47441D01*
X3988Y47416D01*
X4116D01*
X4241Y47441D01*
X4359Y47490D01*
X4466Y47561D01*
X4556Y47652D01*
X4627Y47758D01*
X4676Y47876D01*
X4701Y48002D01*
Y48130D01*
X4676Y48255D01*
X4627Y48374D01*
X4556Y48480D01*
X4466Y48571D01*
X4359Y48642D01*
X4241Y48691D01*
X4116Y48716D01*
D02*
G37*
G36*
X17190Y44339D02*
X17170Y44337D01*
X17149Y44337D01*
X17130Y44332D01*
X17110Y44329D01*
X17091Y44321D01*
X17071Y44316D01*
X17053Y44306D01*
X17035Y44299D01*
X10734Y40723D01*
X10702Y40741D01*
X10562Y40779D01*
X10417D01*
X10277Y40741D01*
X10151Y40669D01*
X10048Y40566D01*
X10032Y40538D01*
X7370D01*
X7290Y40527D01*
X7215Y40496D01*
X7151Y40447D01*
X4881Y38177D01*
X4831Y38112D01*
X4800Y38038D01*
X4790Y37957D01*
Y27958D01*
X4698Y27866D01*
X4626Y27741D01*
X4588Y27600D01*
Y27455D01*
X4626Y27315D01*
X4698Y27189D01*
X4801Y27087D01*
X4927Y27014D01*
X5067Y26977D01*
X5212D01*
X5352Y27014D01*
X5478Y27087D01*
X5580Y27189D01*
X5653Y27315D01*
X5691Y27455D01*
Y27600D01*
X5653Y27741D01*
X5580Y27866D01*
X5478Y27969D01*
X5410Y28008D01*
Y37829D01*
X7499Y39918D01*
X10032D01*
X10048Y39889D01*
X10151Y39787D01*
X10277Y39714D01*
X10417Y39677D01*
X10562D01*
X10702Y39714D01*
X10828Y39787D01*
X10930Y39889D01*
X11003Y40015D01*
X11041Y40155D01*
Y40184D01*
X17250Y43707D01*
X19772Y43362D01*
X19772Y43361D01*
X19778Y43358D01*
X19779Y43359D01*
X22111Y41562D01*
X22129Y41551D01*
X22145Y41539D01*
X22163Y41531D01*
X22181Y41521D01*
X22201Y41516D01*
X22220Y41508D01*
X22240Y41505D01*
X22259Y41500D01*
X22280Y41500D01*
X22300Y41497D01*
X22943D01*
X22959Y41469D01*
X23062Y41366D01*
X23187Y41294D01*
X23327Y41256D01*
X23473D01*
X23613Y41294D01*
X23738Y41366D01*
X23841Y41469D01*
X23914Y41595D01*
X23951Y41735D01*
Y41880D01*
X23914Y42020D01*
X23841Y42146D01*
X23738Y42248D01*
X23613Y42321D01*
X23473Y42358D01*
X23327D01*
X23187Y42321D01*
X23062Y42248D01*
X22959Y42146D01*
X22943Y42117D01*
X22406D01*
X20153Y43854D01*
X20140Y43862D01*
X20119Y43878D01*
X20014Y43935D01*
X19899Y43970D01*
X19876Y43972D01*
X19863Y43975D01*
X17230Y44336D01*
X17210Y44336D01*
X17190Y44339D01*
D02*
G37*
G36*
X21534Y46297D02*
X21390Y46278D01*
X21256Y46222D01*
X21141Y46134D01*
X21053Y46019D01*
X20954Y45848D01*
X20899Y45714D01*
X20880Y45570D01*
X20899Y45426D01*
X20954Y45292D01*
X21043Y45177D01*
X21158Y45089D01*
X21292Y45033D01*
X21436Y45014D01*
X21580Y45033D01*
X21697Y45082D01*
X21711Y45078D01*
X21739Y45062D01*
X21748Y45052D01*
X21765Y44926D01*
X21820Y44792D01*
X21909Y44677D01*
X22024Y44589D01*
X22158Y44533D01*
X22302Y44514D01*
X22446Y44533D01*
X22563Y44582D01*
X22577Y44578D01*
X22605Y44562D01*
X22614Y44552D01*
X22631Y44426D01*
X22686Y44292D01*
X22775Y44177D01*
X22890Y44089D01*
X23024Y44033D01*
X23168Y44014D01*
X23312Y44033D01*
X23429Y44082D01*
X23443Y44078D01*
X23471Y44062D01*
X23480Y44052D01*
X23497Y43926D01*
X23552Y43792D01*
X23641Y43677D01*
X23756Y43589D01*
X23890Y43533D01*
X24034Y43514D01*
X24178Y43533D01*
X24312Y43589D01*
X24427Y43677D01*
X24515Y43792D01*
X24614Y43963D01*
X24669Y44097D01*
X24688Y44241D01*
X24669Y44385D01*
X24614Y44519D01*
X24525Y44634D01*
X24410Y44722D01*
X24276Y44778D01*
X24132Y44797D01*
X23988Y44778D01*
X23871Y44729D01*
X23857Y44732D01*
X23829Y44748D01*
X23820Y44759D01*
X23803Y44885D01*
X23748Y45019D01*
X23659Y45134D01*
X23544Y45222D01*
X23410Y45278D01*
X23266Y45297D01*
X23122Y45278D01*
X23005Y45229D01*
X22991Y45232D01*
X22963Y45248D01*
X22954Y45259D01*
X22937Y45385D01*
X22882Y45519D01*
X22793Y45634D01*
X22678Y45722D01*
X22544Y45778D01*
X22400Y45797D01*
X22256Y45778D01*
X22139Y45729D01*
X22125Y45732D01*
X22097Y45748D01*
X22088Y45759D01*
X22071Y45885D01*
X22016Y46019D01*
X21927Y46134D01*
X21812Y46222D01*
X21678Y46278D01*
X21534Y46297D01*
D02*
G37*
G36*
X25864Y43797D02*
X25720Y43778D01*
X25586Y43722D01*
X25471Y43634D01*
X25383Y43519D01*
X25284Y43348D01*
X25229Y43214D01*
X25210Y43070D01*
X25229Y42926D01*
X25284Y42792D01*
X25373Y42677D01*
X25488Y42589D01*
X25622Y42533D01*
X25766Y42514D01*
X25910Y42533D01*
X25922Y42538D01*
X25955Y42501D01*
X25879Y42368D01*
X26834Y41817D01*
X27483Y42942D01*
X26529Y43494D01*
X26452Y43361D01*
X26403Y43371D01*
X26401Y43385D01*
X26346Y43519D01*
X26257Y43634D01*
X26142Y43722D01*
X26008Y43778D01*
X25864Y43797D01*
D02*
G37*
G36*
X14803Y41921D02*
X14663Y41884D01*
X14537Y41811D01*
X14435Y41709D01*
X14362Y41583D01*
X14325Y41443D01*
X14325Y41298D01*
X14362Y41157D01*
X14435Y41032D01*
X14537Y40929D01*
X14663Y40857D01*
X14803Y40819D01*
X14948Y40819D01*
X15089Y40857D01*
X15214Y40929D01*
X15317Y41032D01*
X15389Y41157D01*
X15427Y41298D01*
X15427Y41443D01*
X15389Y41583D01*
X15317Y41709D01*
X15214Y41811D01*
X15089Y41884D01*
X14948Y41921D01*
X14803Y41921D01*
D02*
G37*
G36*
X13071Y40921D02*
X12931Y40884D01*
X12805Y40811D01*
X12703Y40709D01*
X12630Y40583D01*
X12593Y40443D01*
Y40375D01*
X12549Y40350D01*
X12491Y40384D01*
X12350Y40421D01*
X12205Y40421D01*
X12065Y40384D01*
X11939Y40311D01*
X11837Y40209D01*
X11764Y40083D01*
X11742Y40000D01*
X11688Y39993D01*
X11613Y40123D01*
X10659Y39572D01*
X10734Y39442D01*
X10701Y39399D01*
X10618Y39421D01*
X10473Y39421D01*
X10333Y39384D01*
X10207Y39311D01*
X10105Y39209D01*
X10032Y39083D01*
X9995Y38943D01*
X9995Y38798D01*
X10032Y38657D01*
X10105Y38532D01*
X10207Y38429D01*
X10333Y38357D01*
X10473Y38319D01*
X10618Y38319D01*
X10758Y38357D01*
X10884Y38429D01*
X10987Y38532D01*
X11059Y38657D01*
X11081Y38740D01*
X11135Y38747D01*
X11210Y38617D01*
X12165Y39168D01*
X12090Y39298D01*
X12123Y39341D01*
X12205Y39319D01*
X12350Y39319D01*
X12491Y39357D01*
X12616Y39429D01*
X12719Y39532D01*
X12791Y39657D01*
X12829Y39798D01*
Y39865D01*
X12872Y39890D01*
X12931Y39857D01*
X13071Y39819D01*
X13216Y39819D01*
X13357Y39857D01*
X13482Y39929D01*
X13585Y40032D01*
X13657Y40157D01*
X13695Y40298D01*
X13695Y40443D01*
X13657Y40583D01*
X13585Y40709D01*
X13482Y40811D01*
X13357Y40884D01*
X13216Y40921D01*
X13071Y40921D01*
D02*
G37*
G36*
X28892Y40161D02*
X28250Y39049D01*
X28142Y39111D01*
X27385Y37800D01*
X29340Y36671D01*
X28635Y35450D01*
X31563Y33759D01*
X32268Y34981D01*
X34353Y33777D01*
X35110Y35088D01*
X34756Y35293D01*
X35398Y36405D01*
X28892Y40161D01*
D02*
G37*
G36*
X18534Y41100D02*
X18390Y41081D01*
X18256Y41026D01*
X18141Y40938D01*
X18053Y40822D01*
X17954Y40652D01*
X17899Y40518D01*
X17880Y40374D01*
X17899Y40230D01*
X17954Y40096D01*
X18043Y39981D01*
X18158Y39893D01*
X18292Y39837D01*
X18436Y39818D01*
X18580Y39837D01*
X18697Y39886D01*
X18711Y39882D01*
X18738Y39866D01*
X18748Y39856D01*
X18765Y39730D01*
X18820Y39596D01*
X18909Y39481D01*
X19024Y39393D01*
X19158Y39337D01*
X19302Y39318D01*
X19446Y39337D01*
X19563Y39386D01*
X19577Y39382D01*
X19605Y39366D01*
X19614Y39356D01*
X19631Y39230D01*
X19686Y39096D01*
X19775Y38981D01*
X19890Y38893D01*
X20024Y38837D01*
X20168Y38818D01*
X20312Y38837D01*
X20429Y38886D01*
X20443Y38882D01*
X20471Y38866D01*
X20480Y38856D01*
X20497Y38730D01*
X20552Y38596D01*
X20641Y38481D01*
X20756Y38393D01*
X20890Y38337D01*
X21034Y38318D01*
X21178Y38337D01*
X21295Y38386D01*
X21309Y38382D01*
X21337Y38366D01*
X21346Y38356D01*
X21363Y38230D01*
X21418Y38096D01*
X21507Y37981D01*
X21622Y37893D01*
X21756Y37837D01*
X21900Y37818D01*
X22044Y37837D01*
X22161Y37886D01*
X22175Y37882D01*
X22203Y37866D01*
X22212Y37856D01*
X22229Y37730D01*
X22284Y37596D01*
X22373Y37481D01*
X22488Y37393D01*
X22622Y37337D01*
X22766Y37318D01*
X22910Y37337D01*
X23027Y37386D01*
X23041Y37382D01*
X23069Y37366D01*
X23078Y37356D01*
X23095Y37230D01*
X23150Y37096D01*
X23239Y36981D01*
X23354Y36893D01*
X23488Y36837D01*
X23632Y36818D01*
X23776Y36837D01*
X23910Y36893D01*
X24025Y36981D01*
X24113Y37096D01*
X24212Y37267D01*
X24267Y37401D01*
X24286Y37544D01*
X24267Y37688D01*
X24212Y37822D01*
X24123Y37938D01*
X24008Y38026D01*
X23874Y38081D01*
X23730Y38100D01*
X23586Y38081D01*
X23469Y38033D01*
X23455Y38036D01*
X23428Y38052D01*
X23418Y38062D01*
X23401Y38188D01*
X23346Y38322D01*
X23257Y38438D01*
X23142Y38526D01*
X23008Y38581D01*
X22864Y38600D01*
X22720Y38581D01*
X22603Y38533D01*
X22589Y38536D01*
X22561Y38552D01*
X22552Y38562D01*
X22535Y38688D01*
X22480Y38822D01*
X22391Y38938D01*
X22276Y39026D01*
X22142Y39081D01*
X21998Y39100D01*
X21854Y39081D01*
X21737Y39033D01*
X21723Y39036D01*
X21695Y39052D01*
X21686Y39062D01*
X21669Y39188D01*
X21614Y39322D01*
X21525Y39438D01*
X21410Y39526D01*
X21276Y39581D01*
X21132Y39600D01*
X20988Y39581D01*
X20871Y39533D01*
X20857Y39536D01*
X20829Y39552D01*
X20820Y39562D01*
X20803Y39688D01*
X20748Y39822D01*
X20659Y39938D01*
X20544Y40026D01*
X20410Y40081D01*
X20266Y40100D01*
X20122Y40081D01*
X20005Y40033D01*
X19991Y40036D01*
X19963Y40052D01*
X19954Y40062D01*
X19937Y40188D01*
X19882Y40322D01*
X19793Y40438D01*
X19678Y40526D01*
X19544Y40581D01*
X19400Y40600D01*
X19256Y40581D01*
X19139Y40533D01*
X19125Y40536D01*
X19097Y40552D01*
X19088Y40562D01*
X19071Y40688D01*
X19016Y40822D01*
X18927Y40938D01*
X18812Y41026D01*
X18678Y41081D01*
X18534Y41100D01*
D02*
G37*
G36*
X20300Y36362D02*
X20156Y36343D01*
X20022Y36287D01*
X19907Y36199D01*
X19830Y36098D01*
X19816Y36094D01*
X19784D01*
X19770Y36098D01*
X19693Y36199D01*
X19578Y36287D01*
X19444Y36343D01*
X19300Y36362D01*
X19156Y36343D01*
X19022Y36287D01*
X18907Y36199D01*
X18830Y36098D01*
X18816Y36094D01*
X18784D01*
X18770Y36098D01*
X18693Y36199D01*
X18578Y36287D01*
X18444Y36343D01*
X18300Y36362D01*
X18156Y36343D01*
X18022Y36287D01*
X17907Y36199D01*
X17830Y36098D01*
X17816Y36094D01*
X17784D01*
X17770Y36098D01*
X17693Y36199D01*
X17578Y36287D01*
X17444Y36343D01*
X17300Y36362D01*
X17156Y36343D01*
X17022Y36287D01*
X16907Y36199D01*
X16830Y36098D01*
X16816Y36094D01*
X16784D01*
X16770Y36098D01*
X16693Y36199D01*
X16578Y36287D01*
X16444Y36343D01*
X16300Y36362D01*
X16156Y36343D01*
X16022Y36287D01*
X15907Y36199D01*
X15830Y36098D01*
X15816Y36094D01*
X15784D01*
X15770Y36098D01*
X15693Y36199D01*
X15578Y36287D01*
X15444Y36343D01*
X15300Y36362D01*
X15156Y36343D01*
X15022Y36287D01*
X14907Y36199D01*
X14830Y36098D01*
X14816Y36094D01*
X14784D01*
X14770Y36098D01*
X14693Y36199D01*
X14578Y36287D01*
X14444Y36343D01*
X14300Y36362D01*
X14156Y36343D01*
X14022Y36287D01*
X13907Y36199D01*
X13830Y36098D01*
X13816Y36094D01*
X13784D01*
X13770Y36098D01*
X13693Y36199D01*
X13578Y36287D01*
X13444Y36343D01*
X13300Y36362D01*
X13156Y36343D01*
X13022Y36287D01*
X12907Y36199D01*
X12830Y36098D01*
X12816Y36094D01*
X12784D01*
X12770Y36098D01*
X12693Y36199D01*
X12578Y36287D01*
X12444Y36343D01*
X12300Y36362D01*
X12156Y36343D01*
X12022Y36287D01*
X11907Y36199D01*
X11830Y36098D01*
X11816Y36094D01*
X11784D01*
X11770Y36098D01*
X11693Y36199D01*
X11578Y36287D01*
X11444Y36343D01*
X11300Y36362D01*
X11156Y36343D01*
X11022Y36287D01*
X10907Y36199D01*
X10830Y36098D01*
X10816Y36094D01*
X10784D01*
X10770Y36098D01*
X10693Y36199D01*
X10578Y36287D01*
X10444Y36343D01*
X10300Y36362D01*
X10156Y36343D01*
X10022Y36287D01*
X9907Y36199D01*
X9830Y36098D01*
X9816Y36094D01*
X9784D01*
X9770Y36098D01*
X9693Y36199D01*
X9578Y36287D01*
X9444Y36343D01*
X9300Y36362D01*
X9156Y36343D01*
X9022Y36287D01*
X8907Y36199D01*
X8830Y36098D01*
X8816Y36094D01*
X8784D01*
X8770Y36098D01*
X8693Y36199D01*
X8578Y36287D01*
X8444Y36343D01*
X8300Y36362D01*
X8156Y36343D01*
X8022Y36287D01*
X7907Y36199D01*
X7819Y36084D01*
X7763Y35950D01*
X7744Y35806D01*
Y35609D01*
X7763Y35465D01*
X7819Y35331D01*
X7907Y35216D01*
X8022Y35127D01*
X8156Y35072D01*
X8300Y35053D01*
X8444Y35072D01*
X8578Y35127D01*
X8693Y35216D01*
X8770Y35317D01*
X8784Y35321D01*
X8816D01*
X8830Y35317D01*
X8907Y35216D01*
X9022Y35127D01*
X9156Y35072D01*
X9300Y35053D01*
X9444Y35072D01*
X9578Y35127D01*
X9693Y35216D01*
X9770Y35317D01*
X9784Y35321D01*
X9816D01*
X9830Y35317D01*
X9907Y35216D01*
X10022Y35127D01*
X10156Y35072D01*
X10300Y35053D01*
X10444Y35072D01*
X10578Y35127D01*
X10693Y35216D01*
X10770Y35317D01*
X10784Y35321D01*
X10816D01*
X10830Y35317D01*
X10907Y35216D01*
X11022Y35127D01*
X11156Y35072D01*
X11300Y35053D01*
X11444Y35072D01*
X11578Y35127D01*
X11693Y35216D01*
X11770Y35317D01*
X11784Y35321D01*
X11816D01*
X11830Y35317D01*
X11907Y35216D01*
X12022Y35127D01*
X12156Y35072D01*
X12300Y35053D01*
X12444Y35072D01*
X12578Y35127D01*
X12693Y35216D01*
X12770Y35317D01*
X12784Y35321D01*
X12816D01*
X12830Y35317D01*
X12907Y35216D01*
X13022Y35127D01*
X13156Y35072D01*
X13300Y35053D01*
X13444Y35072D01*
X13578Y35127D01*
X13693Y35216D01*
X13770Y35317D01*
X13784Y35321D01*
X13816D01*
X13830Y35317D01*
X13907Y35216D01*
X14022Y35127D01*
X14156Y35072D01*
X14300Y35053D01*
X14444Y35072D01*
X14578Y35127D01*
X14693Y35216D01*
X14770Y35317D01*
X14784Y35321D01*
X14816D01*
X14830Y35317D01*
X14907Y35216D01*
X15022Y35127D01*
X15156Y35072D01*
X15300Y35053D01*
X15444Y35072D01*
X15578Y35127D01*
X15693Y35216D01*
X15770Y35317D01*
X15784Y35321D01*
X15816D01*
X15830Y35317D01*
X15907Y35216D01*
X16022Y35127D01*
X16156Y35072D01*
X16300Y35053D01*
X16444Y35072D01*
X16578Y35127D01*
X16693Y35216D01*
X16770Y35317D01*
X16784Y35321D01*
X16816D01*
X16830Y35317D01*
X16907Y35216D01*
X17022Y35127D01*
X17156Y35072D01*
X17300Y35053D01*
X17444Y35072D01*
X17578Y35127D01*
X17693Y35216D01*
X17770Y35317D01*
X17784Y35321D01*
X17816D01*
X17830Y35317D01*
X17907Y35216D01*
X18022Y35127D01*
X18156Y35072D01*
X18300Y35053D01*
X18444Y35072D01*
X18578Y35127D01*
X18693Y35216D01*
X18770Y35317D01*
X18784Y35321D01*
X18816D01*
X18830Y35317D01*
X18907Y35216D01*
X19022Y35127D01*
X19156Y35072D01*
X19300Y35053D01*
X19444Y35072D01*
X19578Y35127D01*
X19693Y35216D01*
X19770Y35317D01*
X19784Y35321D01*
X19816D01*
X19830Y35317D01*
X19907Y35216D01*
X20022Y35127D01*
X20156Y35072D01*
X20300Y35053D01*
X20444Y35072D01*
X20578Y35127D01*
X20693Y35216D01*
X20781Y35331D01*
X20837Y35465D01*
X20856Y35609D01*
Y35806D01*
X20837Y35950D01*
X20781Y36084D01*
X20693Y36199D01*
X20578Y36287D01*
X20444Y36343D01*
X20300Y36362D01*
D02*
G37*
G36*
X6851Y36357D02*
X5749D01*
Y35058D01*
X6851D01*
Y36357D01*
D02*
G37*
G36*
X44122Y32675D02*
X43994D01*
X43868Y32650D01*
X43750Y32601D01*
X43644Y32530D01*
X43553Y32439D01*
X43482Y32333D01*
X43433Y32215D01*
X43408Y32089D01*
Y31961D01*
X43433Y31836D01*
X43482Y31717D01*
X43553Y31611D01*
X43644Y31520D01*
X43750Y31449D01*
X43868Y31400D01*
X43994Y31375D01*
X44122D01*
X44247Y31400D01*
X44366Y31449D01*
X44472Y31520D01*
X44562Y31611D01*
X44634Y31717D01*
X44683Y31836D01*
X44707Y31961D01*
Y32089D01*
X44683Y32215D01*
X44634Y32333D01*
X44562Y32439D01*
X44472Y32530D01*
X44366Y32601D01*
X44247Y32650D01*
X44122Y32675D01*
D02*
G37*
G36*
X24080Y32523D02*
X23925D01*
X23773Y32493D01*
X23630Y32434D01*
X23501Y32347D01*
X23391Y32238D01*
X23305Y32109D01*
X23246Y31966D01*
X23215Y31813D01*
Y31658D01*
X23246Y31506D01*
X23305Y31363D01*
X23391Y31234D01*
X23501Y31124D01*
X23630Y31038D01*
X23773Y30979D01*
X23925Y30948D01*
X24080D01*
X24232Y30979D01*
X24376Y31038D01*
X24505Y31124D01*
X24614Y31234D01*
X24701Y31363D01*
X24760Y31506D01*
X24790Y31658D01*
Y31813D01*
X24760Y31966D01*
X24701Y32109D01*
X24614Y32238D01*
X24505Y32347D01*
X24376Y32434D01*
X24232Y32493D01*
X24080Y32523D01*
D02*
G37*
G36*
X32740Y31486D02*
X32595D01*
X32455Y31448D01*
X32329Y31376D01*
X32226Y31273D01*
X32154Y31148D01*
X32116Y31007D01*
Y30862D01*
X32154Y30722D01*
X32226Y30596D01*
X32287Y30536D01*
X32266Y30486D01*
X32116D01*
Y29384D01*
X32266D01*
X32287Y29334D01*
X32226Y29273D01*
X32154Y29148D01*
X32116Y29007D01*
Y28862D01*
X32154Y28722D01*
X32226Y28596D01*
X32329Y28494D01*
X32388Y28460D01*
Y28410D01*
X32329Y28376D01*
X32226Y28273D01*
X32154Y28148D01*
X32116Y28007D01*
Y27862D01*
X32154Y27722D01*
X32226Y27596D01*
X32329Y27494D01*
X32455Y27421D01*
X32595Y27384D01*
X32740D01*
X32880Y27421D01*
X33006Y27494D01*
X33108Y27596D01*
X33181Y27722D01*
X33219Y27862D01*
Y28007D01*
X33181Y28148D01*
X33108Y28273D01*
X33006Y28376D01*
X32947Y28410D01*
Y28460D01*
X33006Y28494D01*
X33108Y28596D01*
X33181Y28722D01*
X33219Y28862D01*
Y29007D01*
X33181Y29148D01*
X33108Y29273D01*
X33048Y29334D01*
X33069Y29384D01*
X33219D01*
Y30486D01*
X33069D01*
X33048Y30536D01*
X33108Y30596D01*
X33181Y30722D01*
X33219Y30862D01*
Y31007D01*
X33181Y31148D01*
X33108Y31273D01*
X33006Y31376D01*
X32880Y31448D01*
X32740Y31486D01*
D02*
G37*
G36*
X29151Y32692D02*
X28954D01*
X28810Y32673D01*
X28676Y32617D01*
X28561Y32529D01*
X28473Y32414D01*
X28417Y32280D01*
X28398Y32136D01*
X28417Y31992D01*
X28473Y31858D01*
X28561Y31743D01*
X28662Y31665D01*
X28666Y31652D01*
Y31620D01*
X28662Y31606D01*
X28561Y31529D01*
X28473Y31414D01*
X28417Y31280D01*
X28398Y31136D01*
X28417Y30992D01*
X28473Y30858D01*
X28561Y30743D01*
X28662Y30665D01*
X28666Y30652D01*
Y30620D01*
X28662Y30606D01*
X28561Y30529D01*
X28473Y30414D01*
X28417Y30280D01*
X28398Y30136D01*
X28417Y29992D01*
X28473Y29858D01*
X28561Y29743D01*
X28662Y29665D01*
X28666Y29652D01*
Y29620D01*
X28662Y29606D01*
X28561Y29529D01*
X28473Y29414D01*
X28417Y29280D01*
X28398Y29136D01*
X28417Y28992D01*
X28473Y28858D01*
X28561Y28743D01*
X28662Y28665D01*
X28666Y28652D01*
Y28620D01*
X28662Y28606D01*
X28561Y28529D01*
X28473Y28414D01*
X28417Y28280D01*
X28398Y28136D01*
X28417Y27992D01*
X28473Y27858D01*
X28561Y27743D01*
X28662Y27665D01*
X28666Y27652D01*
Y27620D01*
X28662Y27606D01*
X28561Y27529D01*
X28473Y27414D01*
X28417Y27280D01*
X28398Y27136D01*
X28417Y26992D01*
X28473Y26858D01*
X28561Y26743D01*
X28676Y26654D01*
X28810Y26599D01*
X28954Y26580D01*
X29151D01*
X29295Y26599D01*
X29429Y26654D01*
X29544Y26743D01*
X29633Y26858D01*
X29688Y26992D01*
X29707Y27136D01*
X29688Y27280D01*
X29633Y27414D01*
X29544Y27529D01*
X29444Y27606D01*
X29440Y27620D01*
Y27652D01*
X29444Y27665D01*
X29544Y27743D01*
X29633Y27858D01*
X29688Y27992D01*
X29707Y28136D01*
X29688Y28280D01*
X29633Y28414D01*
X29544Y28529D01*
X29444Y28606D01*
X29440Y28620D01*
Y28652D01*
X29444Y28665D01*
X29544Y28743D01*
X29633Y28858D01*
X29688Y28992D01*
X29707Y29136D01*
X29688Y29280D01*
X29633Y29414D01*
X29544Y29529D01*
X29444Y29606D01*
X29440Y29620D01*
Y29652D01*
X29444Y29665D01*
X29544Y29743D01*
X29633Y29858D01*
X29688Y29992D01*
X29707Y30136D01*
X29688Y30280D01*
X29633Y30414D01*
X29544Y30529D01*
X29444Y30606D01*
X29440Y30620D01*
Y30652D01*
X29444Y30665D01*
X29544Y30743D01*
X29633Y30858D01*
X29688Y30992D01*
X29707Y31136D01*
X29688Y31280D01*
X29633Y31414D01*
X29544Y31529D01*
X29444Y31606D01*
X29440Y31620D01*
Y31652D01*
X29444Y31665D01*
X29544Y31743D01*
X29633Y31858D01*
X29688Y31992D01*
X29707Y32136D01*
X29688Y32280D01*
X29633Y32414D01*
X29544Y32529D01*
X29429Y32617D01*
X29295Y32673D01*
X29151Y32692D01*
D02*
G37*
G36*
X20300Y26362D02*
X20156Y26343D01*
X20022Y26287D01*
X19907Y26199D01*
X19830Y26098D01*
X19816Y26094D01*
X19784D01*
X19770Y26098D01*
X19693Y26199D01*
X19578Y26287D01*
X19444Y26343D01*
X19300Y26362D01*
X19156Y26343D01*
X19022Y26287D01*
X18907Y26199D01*
X18830Y26098D01*
X18816Y26094D01*
X18784D01*
X18770Y26098D01*
X18693Y26199D01*
X18578Y26287D01*
X18444Y26343D01*
X18300Y26362D01*
X18156Y26343D01*
X18022Y26287D01*
X17907Y26199D01*
X17830Y26098D01*
X17816Y26094D01*
X17784D01*
X17770Y26098D01*
X17693Y26199D01*
X17578Y26287D01*
X17444Y26343D01*
X17300Y26362D01*
X17156Y26343D01*
X17022Y26287D01*
X16907Y26199D01*
X16830Y26098D01*
X16816Y26094D01*
X16784D01*
X16770Y26098D01*
X16693Y26199D01*
X16578Y26287D01*
X16444Y26343D01*
X16300Y26362D01*
X16156Y26343D01*
X16022Y26287D01*
X15907Y26199D01*
X15830Y26098D01*
X15816Y26094D01*
X15784D01*
X15770Y26098D01*
X15693Y26199D01*
X15578Y26287D01*
X15444Y26343D01*
X15300Y26362D01*
X15156Y26343D01*
X15022Y26287D01*
X14907Y26199D01*
X14830Y26098D01*
X14816Y26094D01*
X14784D01*
X14770Y26098D01*
X14693Y26199D01*
X14578Y26287D01*
X14444Y26343D01*
X14300Y26362D01*
X14156Y26343D01*
X14022Y26287D01*
X13907Y26199D01*
X13830Y26098D01*
X13816Y26094D01*
X13784D01*
X13770Y26098D01*
X13693Y26199D01*
X13578Y26287D01*
X13444Y26343D01*
X13300Y26362D01*
X13156Y26343D01*
X13022Y26287D01*
X12907Y26199D01*
X12830Y26098D01*
X12816Y26094D01*
X12784D01*
X12770Y26098D01*
X12693Y26199D01*
X12578Y26287D01*
X12444Y26343D01*
X12300Y26362D01*
X12156Y26343D01*
X12022Y26287D01*
X11907Y26199D01*
X11830Y26098D01*
X11816Y26094D01*
X11784D01*
X11770Y26098D01*
X11693Y26199D01*
X11578Y26287D01*
X11444Y26343D01*
X11300Y26362D01*
X11156Y26343D01*
X11022Y26287D01*
X10907Y26199D01*
X10830Y26098D01*
X10816Y26094D01*
X10784D01*
X10770Y26098D01*
X10693Y26199D01*
X10578Y26287D01*
X10444Y26343D01*
X10300Y26362D01*
X10156Y26343D01*
X10022Y26287D01*
X9907Y26199D01*
X9830Y26098D01*
X9816Y26094D01*
X9784D01*
X9770Y26098D01*
X9693Y26199D01*
X9578Y26287D01*
X9444Y26343D01*
X9300Y26362D01*
X9156Y26343D01*
X9022Y26287D01*
X8907Y26199D01*
X8830Y26098D01*
X8816Y26094D01*
X8784D01*
X8770Y26098D01*
X8693Y26199D01*
X8578Y26287D01*
X8444Y26343D01*
X8300Y26362D01*
X8156Y26343D01*
X8022Y26287D01*
X7907Y26199D01*
X7819Y26084D01*
X7763Y25950D01*
X7744Y25806D01*
Y25609D01*
X7763Y25465D01*
X7819Y25331D01*
X7907Y25216D01*
X8022Y25127D01*
X8156Y25072D01*
X8300Y25053D01*
X8444Y25072D01*
X8578Y25127D01*
X8693Y25216D01*
X8770Y25317D01*
X8784Y25321D01*
X8816D01*
X8830Y25317D01*
X8907Y25216D01*
X9022Y25127D01*
X9156Y25072D01*
X9300Y25053D01*
X9444Y25072D01*
X9578Y25127D01*
X9693Y25216D01*
X9770Y25317D01*
X9784Y25321D01*
X9816D01*
X9830Y25317D01*
X9907Y25216D01*
X10022Y25127D01*
X10156Y25072D01*
X10300Y25053D01*
X10444Y25072D01*
X10578Y25127D01*
X10693Y25216D01*
X10770Y25317D01*
X10784Y25321D01*
X10816D01*
X10830Y25317D01*
X10907Y25216D01*
X11022Y25127D01*
X11156Y25072D01*
X11300Y25053D01*
X11444Y25072D01*
X11578Y25127D01*
X11693Y25216D01*
X11770Y25317D01*
X11784Y25321D01*
X11816D01*
X11830Y25317D01*
X11907Y25216D01*
X12022Y25127D01*
X12156Y25072D01*
X12300Y25053D01*
X12444Y25072D01*
X12578Y25127D01*
X12693Y25216D01*
X12770Y25317D01*
X12784Y25321D01*
X12816D01*
X12830Y25317D01*
X12907Y25216D01*
X13022Y25127D01*
X13156Y25072D01*
X13300Y25053D01*
X13444Y25072D01*
X13578Y25127D01*
X13693Y25216D01*
X13770Y25317D01*
X13784Y25321D01*
X13816D01*
X13830Y25317D01*
X13907Y25216D01*
X14022Y25127D01*
X14156Y25072D01*
X14300Y25053D01*
X14444Y25072D01*
X14578Y25127D01*
X14693Y25216D01*
X14770Y25317D01*
X14784Y25321D01*
X14816D01*
X14830Y25317D01*
X14907Y25216D01*
X15022Y25127D01*
X15156Y25072D01*
X15300Y25053D01*
X15444Y25072D01*
X15578Y25127D01*
X15693Y25216D01*
X15770Y25317D01*
X15784Y25321D01*
X15816D01*
X15830Y25317D01*
X15907Y25216D01*
X16022Y25127D01*
X16156Y25072D01*
X16300Y25053D01*
X16444Y25072D01*
X16578Y25127D01*
X16693Y25216D01*
X16770Y25317D01*
X16784Y25321D01*
X16816D01*
X16830Y25317D01*
X16907Y25216D01*
X17022Y25127D01*
X17156Y25072D01*
X17300Y25053D01*
X17444Y25072D01*
X17578Y25127D01*
X17693Y25216D01*
X17770Y25317D01*
X17784Y25321D01*
X17816D01*
X17830Y25317D01*
X17907Y25216D01*
X18022Y25127D01*
X18156Y25072D01*
X18300Y25053D01*
X18444Y25072D01*
X18578Y25127D01*
X18693Y25216D01*
X18770Y25317D01*
X18784Y25321D01*
X18816D01*
X18830Y25317D01*
X18907Y25216D01*
X19022Y25127D01*
X19156Y25072D01*
X19300Y25053D01*
X19444Y25072D01*
X19578Y25127D01*
X19693Y25216D01*
X19770Y25317D01*
X19784Y25321D01*
X19816D01*
X19830Y25317D01*
X19907Y25216D01*
X20022Y25127D01*
X20156Y25072D01*
X20300Y25053D01*
X20444Y25072D01*
X20578Y25127D01*
X20693Y25216D01*
X20781Y25331D01*
X20837Y25465D01*
X20856Y25609D01*
Y25806D01*
X20837Y25950D01*
X20781Y26084D01*
X20693Y26199D01*
X20578Y26287D01*
X20444Y26343D01*
X20300Y26362D01*
D02*
G37*
G36*
X32740Y26486D02*
X32595D01*
X32455Y26448D01*
X32329Y26376D01*
X32226Y26273D01*
X32154Y26148D01*
X32116Y26007D01*
Y25862D01*
X32154Y25722D01*
X32226Y25596D01*
X32329Y25494D01*
X32455Y25421D01*
X32595Y25384D01*
X32740D01*
X32880Y25421D01*
X33006Y25494D01*
X33108Y25596D01*
X33181Y25722D01*
X33219Y25862D01*
Y26007D01*
X33181Y26148D01*
X33108Y26273D01*
X33006Y26376D01*
X32880Y26448D01*
X32740Y26486D01*
D02*
G37*
G36*
X6300Y26362D02*
X6156Y26343D01*
X6022Y26287D01*
X5907Y26199D01*
X5819Y26084D01*
X5763Y25950D01*
X5744Y25806D01*
Y25609D01*
X5763Y25465D01*
X5819Y25331D01*
X5907Y25216D01*
X6022Y25127D01*
X6156Y25072D01*
X6300Y25053D01*
X6444Y25072D01*
X6578Y25127D01*
X6693Y25216D01*
X6781Y25331D01*
X6837Y25465D01*
X6856Y25609D01*
Y25806D01*
X6837Y25950D01*
X6781Y26084D01*
X6693Y26199D01*
X6578Y26287D01*
X6444Y26343D01*
X6300Y26362D01*
D02*
G37*
G36*
X24080Y26423D02*
X23925D01*
X23773Y26393D01*
X23630Y26334D01*
X23501Y26247D01*
X23391Y26138D01*
X23305Y26009D01*
X23246Y25866D01*
X23215Y25713D01*
Y25558D01*
X23246Y25406D01*
X23305Y25263D01*
X23391Y25134D01*
X23501Y25024D01*
X23630Y24938D01*
X23773Y24879D01*
X23925Y24848D01*
X24080D01*
X24232Y24879D01*
X24376Y24938D01*
X24505Y25024D01*
X24614Y25134D01*
X24701Y25263D01*
X24760Y25406D01*
X24790Y25558D01*
Y25713D01*
X24760Y25866D01*
X24701Y26009D01*
X24614Y26138D01*
X24505Y26247D01*
X24376Y26334D01*
X24232Y26393D01*
X24080Y26423D01*
D02*
G37*
G36*
X29702Y25687D02*
X28403D01*
Y24585D01*
X29702D01*
Y25687D01*
D02*
G37*
G36*
X44122Y25588D02*
X43994D01*
X43868Y25563D01*
X43750Y25514D01*
X43644Y25443D01*
X43553Y25353D01*
X43482Y25246D01*
X43433Y25128D01*
X43408Y25002D01*
Y24874D01*
X43433Y24749D01*
X43482Y24631D01*
X43553Y24524D01*
X43644Y24434D01*
X43750Y24363D01*
X43868Y24314D01*
X43994Y24289D01*
X44122D01*
X44247Y24314D01*
X44366Y24363D01*
X44472Y24434D01*
X44562Y24524D01*
X44634Y24631D01*
X44683Y24749D01*
X44707Y24874D01*
Y25002D01*
X44683Y25128D01*
X44634Y25246D01*
X44562Y25353D01*
X44472Y25443D01*
X44366Y25514D01*
X44247Y25563D01*
X44122Y25588D01*
D02*
G37*
G36*
X27366Y23097D02*
X27222Y23078D01*
X27088Y23022D01*
X26973Y22934D01*
X26884Y22819D01*
X26829Y22685D01*
X26812Y22559D01*
X26803Y22548D01*
X26775Y22532D01*
X26761Y22529D01*
X26644Y22578D01*
X26500Y22597D01*
X26356Y22578D01*
X26222Y22522D01*
X26107Y22434D01*
X26018Y22319D01*
X25963Y22185D01*
X25946Y22059D01*
X25937Y22048D01*
X25909Y22032D01*
X25895Y22029D01*
X25778Y22078D01*
X25634Y22097D01*
X25490Y22078D01*
X25356Y22022D01*
X25241Y21934D01*
X25152Y21819D01*
X25097Y21685D01*
X25080Y21559D01*
X25071Y21548D01*
X25043Y21532D01*
X25029Y21529D01*
X24912Y21578D01*
X24768Y21597D01*
X24624Y21578D01*
X24490Y21522D01*
X24375Y21434D01*
X24286Y21319D01*
X24231Y21185D01*
X24214Y21059D01*
X24205Y21048D01*
X24177Y21032D01*
X24163Y21029D01*
X24046Y21078D01*
X23902Y21097D01*
X23758Y21078D01*
X23624Y21022D01*
X23509Y20934D01*
X23420Y20819D01*
X23365Y20685D01*
X23348Y20559D01*
X23338Y20548D01*
X23311Y20532D01*
X23297Y20529D01*
X23180Y20578D01*
X23036Y20597D01*
X22892Y20578D01*
X22758Y20522D01*
X22643Y20434D01*
X22554Y20319D01*
X22499Y20185D01*
X22482Y20059D01*
X22472Y20048D01*
X22445Y20032D01*
X22431Y20029D01*
X22314Y20078D01*
X22170Y20097D01*
X22026Y20078D01*
X21892Y20022D01*
X21777Y19934D01*
X21688Y19819D01*
X21633Y19685D01*
X21614Y19541D01*
X21633Y19397D01*
X21688Y19263D01*
X21787Y19092D01*
X21875Y18977D01*
X21990Y18889D01*
X22124Y18833D01*
X22268Y18814D01*
X22412Y18833D01*
X22546Y18889D01*
X22661Y18977D01*
X22750Y19092D01*
X22805Y19226D01*
X22822Y19352D01*
X22831Y19362D01*
X22859Y19378D01*
X22873Y19382D01*
X22990Y19333D01*
X23134Y19314D01*
X23278Y19333D01*
X23412Y19389D01*
X23527Y19477D01*
X23616Y19592D01*
X23671Y19726D01*
X23688Y19852D01*
X23697Y19862D01*
X23725Y19878D01*
X23739Y19882D01*
X23856Y19833D01*
X24000Y19814D01*
X24144Y19833D01*
X24278Y19889D01*
X24393Y19977D01*
X24482Y20092D01*
X24537Y20226D01*
X24554Y20352D01*
X24563Y20362D01*
X24591Y20378D01*
X24605Y20382D01*
X24722Y20333D01*
X24866Y20314D01*
X25010Y20333D01*
X25144Y20389D01*
X25259Y20477D01*
X25348Y20592D01*
X25403Y20726D01*
X25420Y20852D01*
X25429Y20862D01*
X25457Y20878D01*
X25471Y20882D01*
X25588Y20833D01*
X25732Y20814D01*
X25876Y20833D01*
X26010Y20889D01*
X26125Y20977D01*
X26214Y21092D01*
X26269Y21226D01*
X26286Y21352D01*
X26295Y21362D01*
X26323Y21378D01*
X26337Y21382D01*
X26454Y21333D01*
X26598Y21314D01*
X26742Y21333D01*
X26876Y21389D01*
X26991Y21477D01*
X27080Y21592D01*
X27135Y21726D01*
X27152Y21852D01*
X27161Y21862D01*
X27189Y21878D01*
X27203Y21882D01*
X27320Y21833D01*
X27464Y21814D01*
X27608Y21833D01*
X27742Y21889D01*
X27857Y21977D01*
X27946Y22092D01*
X28001Y22226D01*
X28020Y22370D01*
X28001Y22514D01*
X27946Y22648D01*
X27847Y22819D01*
X27759Y22934D01*
X27644Y23022D01*
X27510Y23078D01*
X27366Y23097D01*
D02*
G37*
G36*
X20212Y38429D02*
X20067D01*
X19927Y38391D01*
X19801Y38319D01*
X19698Y38216D01*
X19626Y38091D01*
X19588Y37950D01*
Y37805D01*
X19626Y37665D01*
X19698Y37539D01*
X19801Y37437D01*
X19927Y37364D01*
X20067Y37327D01*
X20212D01*
X20244Y37335D01*
X20990Y36589D01*
Y23007D01*
X21000Y22927D01*
X21031Y22852D01*
X21081Y22788D01*
X21557Y22311D01*
X21549Y22280D01*
Y22135D01*
X21586Y21995D01*
X21659Y21869D01*
X21762Y21766D01*
X21887Y21694D01*
X22027Y21656D01*
X22173D01*
X22313Y21694D01*
X22438Y21766D01*
X22541Y21869D01*
X22614Y21995D01*
X22651Y22135D01*
Y22280D01*
X22614Y22420D01*
X22541Y22546D01*
X22438Y22648D01*
X22313Y22721D01*
X22173Y22758D01*
X22027D01*
X21996Y22750D01*
X21610Y23136D01*
Y36717D01*
X21600Y36797D01*
X21569Y36872D01*
X21519Y36937D01*
X20682Y37774D01*
X20691Y37805D01*
Y37950D01*
X20653Y38091D01*
X20580Y38216D01*
X20478Y38319D01*
X20352Y38391D01*
X20212Y38429D01*
D02*
G37*
G36*
X10724Y18608D02*
X10579Y18608D01*
X10439Y18571D01*
X10313Y18498D01*
X10211Y18396D01*
X10138Y18270D01*
X10101Y18130D01*
X10101Y17985D01*
X10138Y17845D01*
X10211Y17719D01*
X10313Y17616D01*
X10439Y17544D01*
X10579Y17506D01*
X10724Y17506D01*
X10865Y17544D01*
X10990Y17616D01*
X11093Y17719D01*
X11166Y17845D01*
X11203Y17985D01*
X11203Y18130D01*
X11166Y18270D01*
X11093Y18396D01*
X10990Y18498D01*
X10865Y18571D01*
X10724Y18608D01*
D02*
G37*
G36*
X30366Y17900D02*
X30222Y17881D01*
X30088Y17826D01*
X29973Y17738D01*
X29884Y17622D01*
X29829Y17488D01*
X29812Y17362D01*
X29803Y17352D01*
X29775Y17336D01*
X29761Y17333D01*
X29644Y17381D01*
X29500Y17400D01*
X29356Y17381D01*
X29222Y17326D01*
X29107Y17238D01*
X29018Y17122D01*
X28963Y16988D01*
X28946Y16862D01*
X28937Y16852D01*
X28909Y16836D01*
X28895Y16833D01*
X28778Y16881D01*
X28634Y16900D01*
X28490Y16881D01*
X28356Y16826D01*
X28241Y16738D01*
X28152Y16622D01*
X28097Y16488D01*
X28080Y16362D01*
X28071Y16352D01*
X28043Y16336D01*
X28029Y16333D01*
X27912Y16381D01*
X27768Y16400D01*
X27624Y16381D01*
X27490Y16326D01*
X27375Y16238D01*
X27286Y16122D01*
X27231Y15988D01*
X27212Y15844D01*
X27231Y15701D01*
X27286Y15567D01*
X27385Y15396D01*
X27473Y15281D01*
X27588Y15193D01*
X27722Y15137D01*
X27866Y15118D01*
X28010Y15137D01*
X28144Y15193D01*
X28259Y15281D01*
X28348Y15396D01*
X28403Y15530D01*
X28420Y15656D01*
X28429Y15666D01*
X28457Y15682D01*
X28471Y15686D01*
X28588Y15637D01*
X28732Y15618D01*
X28876Y15637D01*
X29010Y15693D01*
X29125Y15781D01*
X29214Y15896D01*
X29269Y16030D01*
X29286Y16156D01*
X29295Y16166D01*
X29323Y16182D01*
X29337Y16186D01*
X29454Y16137D01*
X29598Y16118D01*
X29742Y16137D01*
X29876Y16193D01*
X29991Y16281D01*
X30080Y16396D01*
X30135Y16530D01*
X30152Y16656D01*
X30161Y16666D01*
X30189Y16682D01*
X30203Y16686D01*
X30320Y16637D01*
X30464Y16618D01*
X30608Y16637D01*
X30742Y16693D01*
X30857Y16781D01*
X30946Y16896D01*
X31001Y17030D01*
X31020Y17174D01*
X31001Y17318D01*
X30946Y17452D01*
X30847Y17622D01*
X30759Y17738D01*
X30644Y17826D01*
X30510Y17881D01*
X30366Y17900D01*
D02*
G37*
G36*
X4852Y18397D02*
X3750D01*
Y17295D01*
X4852D01*
Y18397D01*
D02*
G37*
G36*
X29223Y24458D02*
X29077D01*
X28937Y24421D01*
X28812Y24348D01*
X28709Y24246D01*
X28636Y24120D01*
X28599Y23980D01*
Y23835D01*
X28636Y23695D01*
X28709Y23569D01*
X28812Y23466D01*
X28840Y23450D01*
Y20886D01*
X23504Y15550D01*
X23473Y15558D01*
X23327D01*
X23187Y15521D01*
X23062Y15448D01*
X22959Y15346D01*
X22886Y15220D01*
X22849Y15080D01*
Y14935D01*
X22886Y14795D01*
X22959Y14669D01*
X23062Y14566D01*
X23187Y14494D01*
X23327Y14456D01*
X23473D01*
X23613Y14494D01*
X23738Y14566D01*
X23841Y14669D01*
X23914Y14795D01*
X23951Y14935D01*
Y15080D01*
X23943Y15111D01*
X29369Y20538D01*
X29419Y20602D01*
X29450Y20677D01*
X29460Y20757D01*
Y23450D01*
X29488Y23466D01*
X29591Y23569D01*
X29664Y23695D01*
X29701Y23835D01*
Y23980D01*
X29664Y24120D01*
X29591Y24246D01*
X29488Y24348D01*
X29363Y24421D01*
X29223Y24458D01*
D02*
G37*
G36*
X12457Y17608D02*
X12311Y17608D01*
X12171Y17571D01*
X12046Y17498D01*
X11943Y17396D01*
X11870Y17270D01*
X11833Y17130D01*
X11833Y16985D01*
X11870Y16845D01*
X11943Y16719D01*
X12046Y16616D01*
X12171Y16544D01*
X12311Y16506D01*
X12457Y16506D01*
X12597Y16544D01*
X12656Y16578D01*
X12699Y16553D01*
Y16485D01*
X12736Y16345D01*
X12809Y16219D01*
X12912Y16116D01*
X13037Y16044D01*
X13177Y16006D01*
X13323Y16006D01*
X13405Y16028D01*
X13438Y15985D01*
X13363Y15856D01*
X14318Y15304D01*
X14393Y15434D01*
X14446Y15427D01*
X14468Y15345D01*
X14541Y15219D01*
X14644Y15116D01*
X14769Y15044D01*
X14909Y15006D01*
X15055Y15006D01*
X15195Y15044D01*
X15320Y15116D01*
X15423Y15219D01*
X15496Y15345D01*
X15533Y15485D01*
X15533Y15630D01*
X15496Y15770D01*
X15423Y15896D01*
X15320Y15998D01*
X15195Y16071D01*
X15055Y16108D01*
X14909Y16108D01*
X14827Y16086D01*
X14794Y16129D01*
X14869Y16259D01*
X13914Y16810D01*
X13839Y16681D01*
X13786Y16688D01*
X13764Y16770D01*
X13691Y16896D01*
X13588Y16998D01*
X13463Y17071D01*
X13323Y17108D01*
X13177Y17108D01*
X13037Y17071D01*
X12978Y17037D01*
X12935Y17062D01*
Y17130D01*
X12898Y17270D01*
X12825Y17396D01*
X12722Y17498D01*
X12597Y17571D01*
X12457Y17608D01*
D02*
G37*
G36*
X26036Y15400D02*
X25892Y15381D01*
X25758Y15326D01*
X25643Y15238D01*
X25554Y15122D01*
X25499Y14988D01*
X25497Y14975D01*
X25448Y14965D01*
X25371Y15097D01*
X24417Y14546D01*
X25066Y13421D01*
X26021Y13972D01*
X25945Y14105D01*
X25978Y14142D01*
X25990Y14137D01*
X26134Y14118D01*
X26278Y14137D01*
X26412Y14193D01*
X26527Y14281D01*
X26616Y14396D01*
X26671Y14530D01*
X26690Y14674D01*
X26671Y14818D01*
X26616Y14952D01*
X26517Y15122D01*
X26429Y15238D01*
X26314Y15326D01*
X26180Y15381D01*
X26036Y15400D01*
D02*
G37*
G36*
X4848Y16063D02*
X4652D01*
X4508Y16044D01*
X4374Y15989D01*
X4258Y15900D01*
X4170Y15785D01*
X4115Y15651D01*
X4096Y15507D01*
X4115Y15363D01*
X4170Y15229D01*
X4258Y15114D01*
X4359Y15037D01*
X4363Y15023D01*
Y14991D01*
X4359Y14978D01*
X4258Y14900D01*
X4170Y14785D01*
X4115Y14651D01*
X4096Y14507D01*
X4115Y14363D01*
X4170Y14229D01*
X4258Y14114D01*
X4359Y14037D01*
X4363Y14023D01*
Y13991D01*
X4359Y13978D01*
X4258Y13900D01*
X4170Y13785D01*
X4115Y13651D01*
X4096Y13507D01*
X4115Y13363D01*
X4170Y13229D01*
X4258Y13114D01*
X4374Y13026D01*
X4508Y12970D01*
X4652Y12951D01*
X4848D01*
X4992Y12970D01*
X5126Y13026D01*
X5242Y13114D01*
X5330Y13229D01*
X5385Y13363D01*
X5404Y13507D01*
X5385Y13651D01*
X5330Y13785D01*
X5242Y13900D01*
X5141Y13978D01*
X5137Y13991D01*
Y14023D01*
X5141Y14037D01*
X5242Y14114D01*
X5330Y14229D01*
X5385Y14363D01*
X5404Y14507D01*
X5385Y14651D01*
X5330Y14785D01*
X5242Y14900D01*
X5141Y14978D01*
X5137Y14991D01*
Y15023D01*
X5141Y15037D01*
X5242Y15114D01*
X5330Y15229D01*
X5385Y15363D01*
X5404Y15507D01*
X5385Y15651D01*
X5330Y15785D01*
X5242Y15900D01*
X5126Y15989D01*
X4992Y16044D01*
X4848Y16063D01*
D02*
G37*
G36*
X22979Y13516D02*
X22025Y12965D01*
X22576Y12010D01*
X23530Y12562D01*
X22979Y13516D01*
D02*
G37*
G36*
X17694Y10465D02*
X16740Y9914D01*
X17291Y8959D01*
X18246Y9510D01*
X17694Y10465D01*
D02*
G37*
G36*
X4115Y9601D02*
X3987D01*
X3861Y9576D01*
X3743Y9527D01*
X3637Y9456D01*
X3546Y9366D01*
X3475Y9260D01*
X3426Y9141D01*
X3401Y9016D01*
Y8888D01*
X3426Y8762D01*
X3475Y8644D01*
X3546Y8538D01*
X3637Y8447D01*
X3743Y8376D01*
X3861Y8327D01*
X3987Y8302D01*
X4115D01*
X4240Y8327D01*
X4358Y8376D01*
X4465Y8447D01*
X4555Y8538D01*
X4626Y8644D01*
X4675Y8762D01*
X4700Y8888D01*
Y9016D01*
X4675Y9141D01*
X4626Y9260D01*
X4555Y9366D01*
X4465Y9456D01*
X4358Y9527D01*
X4240Y9576D01*
X4115Y9601D01*
D02*
G37*
G36*
X10252Y6058D02*
X10124D01*
X9999Y6033D01*
X9880Y5984D01*
X9774Y5913D01*
X9684Y5823D01*
X9613Y5716D01*
X9564Y5598D01*
X9539Y5472D01*
Y5345D01*
X9564Y5219D01*
X9613Y5101D01*
X9684Y4994D01*
X9774Y4904D01*
X9880Y4833D01*
X9999Y4784D01*
X10124Y4759D01*
X10252D01*
X10378Y4784D01*
X10496Y4833D01*
X10602Y4904D01*
X10693Y4994D01*
X10764Y5101D01*
X10813Y5219D01*
X10838Y5345D01*
Y5472D01*
X10813Y5598D01*
X10764Y5716D01*
X10693Y5823D01*
X10602Y5913D01*
X10496Y5984D01*
X10378Y6033D01*
X10252Y6058D01*
D02*
G37*
%LPD*%
D10*
X19963Y43609D02*
G03*
X19821Y43668I-183J-238D01*
G01*
X22300Y41807D02*
X23400D01*
X19614Y18322D02*
X26550Y25257D01*
X19614Y16007D02*
Y18322D01*
X20139Y37878D02*
X21300Y36717D01*
Y23007D02*
X22100Y22207D01*
X21300Y23007D02*
Y36717D01*
X14250Y13057D02*
X17200Y16007D01*
X19614D01*
X29150Y20757D02*
Y23907D01*
X23400Y15007D02*
X29150Y20757D01*
X10325Y16907D02*
X14175Y13057D01*
X10250Y16907D02*
X10325D01*
X14175Y13057D02*
X14250D01*
X6750Y20407D02*
X10250Y16907D01*
X5400Y20407D02*
X6750D01*
X7294Y36937D02*
X8164Y37807D01*
X14664D01*
X16844Y39987D01*
X19963Y43609D02*
X22300Y41807D01*
X19821Y43668D02*
X19821Y43668D01*
X5100Y27407D02*
Y37957D01*
X17188Y44029D02*
X19821Y43668D01*
X10489Y40228D02*
X17188Y44029D01*
X7370Y40228D02*
X10489D01*
X5100Y37957D02*
X7370Y40228D01*
D11*
X28956Y39558D02*
X29139Y39606D01*
X29369Y39473D01*
X29418Y39291D01*
X29352Y39176D01*
X29169Y39127D01*
X29054Y39194D01*
X29169Y39127D01*
X29218Y38945D01*
X29152Y38829D01*
X28970Y38781D01*
X28739Y38914D01*
X28690Y39096D01*
X30408Y38873D02*
X30008Y38181D01*
X30373Y38278D01*
X30470Y37914D01*
X30870Y38607D01*
X31101Y38473D02*
X30701Y37781D01*
X30901Y38127D01*
X31083Y38176D01*
X31314Y38043D01*
X31363Y37861D01*
X31163Y37514D01*
X31740Y37181D02*
X31509Y37314D01*
X31460Y37496D01*
X31594Y37727D01*
X31776Y37776D01*
X32006Y37643D01*
X32055Y37461D01*
X31989Y37345D01*
X31527Y37612D01*
X32432Y36781D02*
X32202Y36915D01*
X32153Y37097D01*
X32286Y37327D01*
X32468Y37376D01*
X32699Y37243D01*
X32748Y37061D01*
X32681Y36945D01*
X32219Y37212D01*
X32779Y36581D02*
X33010Y36448D01*
X32894Y36515D01*
X33294Y37207D01*
X33179Y37274D01*
X33702Y36048D02*
X33471Y36181D01*
X33423Y36363D01*
X33556Y36594D01*
X33738Y36643D01*
X33969Y36510D01*
X34018Y36328D01*
X33951Y36212D01*
X33489Y36479D01*
X34910Y36274D02*
X34510Y35582D01*
X34164Y35782D01*
X34115Y35964D01*
X34248Y36195D01*
X34431Y36243D01*
X34777Y36043D01*
X28619Y38423D02*
X28389Y38556D01*
X28206Y38508D01*
X27940Y38046D01*
X27989Y37864D01*
X28219Y37731D01*
X28402Y37779D01*
X28668Y38241D01*
X28619Y38423D01*
X28566Y37531D02*
X28832Y37992D01*
X28948Y37926D01*
X28997Y37744D01*
X28797Y37397D01*
X28997Y37744D01*
X29179Y37792D01*
X29227Y37610D01*
X29028Y37264D01*
X29258Y37131D02*
X29525Y37593D01*
X29871Y37393D01*
X29920Y37211D01*
X29720Y36864D01*
X29951Y36731D02*
X30182Y36598D01*
X30066Y36664D01*
X30333Y37126D01*
X30218Y37193D01*
X31221Y35998D02*
X31621Y36690D01*
X31967Y36490D01*
X32016Y36308D01*
X31882Y36078D01*
X31700Y36029D01*
X31354Y36229D01*
X31585Y36095D02*
X31682Y35731D01*
X32029Y35531D02*
X32260Y35398D01*
X32442Y35447D01*
X32575Y35678D01*
X32526Y35860D01*
X32295Y35993D01*
X32113Y35944D01*
X31980Y35713D01*
X32029Y35531D01*
X33006Y35891D02*
X32606Y35198D01*
X32952Y34998D01*
X33134Y35047D01*
X33201Y35162D01*
X33268Y35278D01*
X33219Y35460D01*
X32873Y35660D01*
X33414Y34732D02*
X33645Y34598D01*
X33827Y34647D01*
X33960Y34878D01*
X33911Y35060D01*
X33681Y35193D01*
X33498Y35145D01*
X33365Y34914D01*
X33414Y34732D01*
X34440Y34909D02*
X34373Y34793D01*
X34258Y34860D01*
X34489Y34727D01*
X34373Y34793D01*
X34173Y34447D01*
X34222Y34265D01*
X29523Y36273D02*
X29256Y35811D01*
X29354Y35447D01*
X29718Y35545D01*
X29985Y36007D01*
X29816Y35181D02*
X30047Y35047D01*
X29931Y35114D01*
X30331Y35807D01*
X30149Y35758D01*
X30393Y34847D02*
X30460Y34963D01*
X30575Y34896D01*
X30508Y34781D01*
X30393Y34847D01*
X31303Y35091D02*
X31485Y35140D01*
X31716Y35007D01*
X31765Y34825D01*
X31498Y34363D01*
X31316Y34314D01*
X31086Y34448D01*
X31037Y34630D01*
X31303Y35091D01*
D12*
X44058Y24938D02*
D03*
Y32025D02*
D03*
X10188Y5408D02*
D03*
X4051Y8952D02*
D03*
X10189Y51609D02*
D03*
X4052Y48066D02*
D03*
D13*
X32667Y30935D02*
D03*
Y28935D02*
D03*
Y27935D02*
D03*
Y26935D02*
D03*
Y25935D02*
D03*
X14982Y15557D02*
D03*
X13250Y16557D02*
D03*
X12384Y17057D02*
D03*
X11518Y17557D02*
D03*
X10652Y18057D02*
D03*
X5285Y17846D02*
D03*
X20907Y16002D02*
D03*
X15623Y12951D02*
D03*
X10546Y38870D02*
D03*
X12278Y39870D02*
D03*
X13144Y40370D02*
D03*
X14010Y40870D02*
D03*
X14876Y41370D02*
D03*
X23400Y41807D02*
D03*
X26414Y25157D02*
D03*
X22100Y22207D02*
D03*
X19614Y16007D02*
D03*
X23400Y15007D02*
D03*
X14250Y13057D02*
D03*
X5400Y20407D02*
D03*
X10250Y16907D02*
D03*
X7294Y36937D02*
D03*
X16844Y39987D02*
D03*
X20139Y37878D02*
D03*
X5139Y27528D02*
D03*
X10489Y40228D02*
D03*
X29150Y23907D02*
D03*
D14*
X32667Y29935D02*
D03*
X4301Y17846D02*
D03*
D15*
X14116Y16057D02*
D03*
D16*
X4750Y13507D02*
D03*
Y14507D02*
D03*
Y15507D02*
D03*
X29053Y32136D02*
D03*
Y31136D02*
D03*
Y30136D02*
D03*
Y29136D02*
D03*
Y28136D02*
D03*
Y27136D02*
D03*
Y26136D02*
D03*
D17*
X24003Y31736D02*
D03*
Y25636D02*
D03*
D18*
X29053Y25136D02*
D03*
D19*
X17300Y25707D02*
D03*
X14300D02*
D03*
X15300D02*
D03*
X16300D02*
D03*
X13300D02*
D03*
X12300D02*
D03*
X9300D02*
D03*
X8300D02*
D03*
X7300D02*
D03*
X6300D02*
D03*
X20300D02*
D03*
X18300D02*
D03*
X10300D02*
D03*
X11300D02*
D03*
X19300D02*
D03*
X12300Y35707D02*
D03*
X10300D02*
D03*
X11300D02*
D03*
X13300D02*
D03*
X14300D02*
D03*
X15300D02*
D03*
X16300D02*
D03*
X17300D02*
D03*
X18300D02*
D03*
X19300D02*
D03*
X20300D02*
D03*
X8300D02*
D03*
X9300D02*
D03*
X7300D02*
D03*
D20*
X6300D02*
D03*
D21*
X20619Y46155D02*
D03*
X21485Y45655D02*
D03*
X22351Y45155D02*
D03*
X23217Y44655D02*
D03*
X24083Y44155D02*
D03*
X24949Y43655D02*
D03*
X25815Y43155D02*
D03*
X23681Y37459D02*
D03*
X22815Y37959D02*
D03*
X21949Y38459D02*
D03*
X21083Y38959D02*
D03*
X20217Y39459D02*
D03*
X19351Y39959D02*
D03*
X18485Y40459D02*
D03*
X17619Y40959D02*
D03*
D22*
X26681Y42655D02*
D03*
D23*
X22777Y12763D02*
D03*
X17493Y9712D02*
D03*
X11412Y39370D02*
D03*
D24*
X31281Y17759D02*
D03*
X30415Y17259D02*
D03*
X29549Y16759D02*
D03*
X28683Y16259D02*
D03*
X27817Y15759D02*
D03*
X26951Y15259D02*
D03*
X26085Y14759D02*
D03*
X22219Y19455D02*
D03*
X23085Y19955D02*
D03*
X23951Y20455D02*
D03*
X24817Y20955D02*
D03*
X25683Y21455D02*
D03*
X26549Y21955D02*
D03*
X27415Y22455D02*
D03*
X28281Y22955D02*
D03*
D25*
X25219Y14259D02*
D03*
M02*
