M48
;Layer_Color=9474304
;FILE_FORMAT=2:4
INCH,LZ
;TYPE=PLATED
T01F00S00C0.0394
T02F00S00C0.0906
;TYPE=NON_PLATED
T03F00S00C0.1260
%
T01
X00475Y013507
Y014507
Y015507
X014982Y015557
X01425Y013057
X015623Y012951
X017493Y009712
X022777Y012763
X0234Y015007
X025219Y014259
X026085Y014759
X026951Y015259
X031281Y017759
X032667Y025935
Y026935
Y027935
Y028935
Y029935
Y030935
X029053Y031136
Y030136
Y029136
Y028136
Y027136
Y026136
Y025136
X02915Y023907
X028281Y022955
X027415Y022455
X026549Y021955
X025683Y021455
X024817Y020955
X023951Y020455
X023085Y019955
X022219Y019455
X0221Y022207
X0203Y025707
X0193
X0183
X0173
X0163
X026414Y025157
X027817Y015759
X028683Y016259
X029549Y016759
X030415Y017259
X020907Y016002
X019614Y016007
X014116Y016057
X01325Y016557
X012384Y017057
X011518Y017557
X010652Y018057
X01025Y016907
X005285Y017846
X004301
X0054Y020407
X0063Y025707
X0073
X0083
X0093
X0103
X0113
X0123
X0133
X0143
X0153
X005139Y027528
X0063Y035707
X0073
X0083
X0093
X0103
X0113
X0123
X0133
X0143
X0153
X014876Y04137
X01401Y04087
X013144Y04037
X012278Y03987
X011412Y03937
X010546Y03887
X010489Y040228
X007294Y036937
X0163Y035707
X0173
X0183
X0193
X0203
X020139Y037878
X020217Y039459
X021083Y038959
X021949Y038459
X022815Y037959
X023681Y037459
X0234Y041807
X024083Y044155
X024949Y043655
X025815Y043155
X026681Y042655
X023217Y044655
X022351Y045155
X021485Y045655
X020619Y046155
X019351Y039959
X018485Y040459
X017619Y040959
X016844Y039987
X029053Y032136
T02
X004051Y008952
X010188Y005408
X044058Y024938
Y032025
X010189Y051609
X004052Y048066
T03
X024003Y025636
Y031736
M30
